<svg width="335" height="126" viewBox="0 0 335 126" fill="none" xmlns="http://www.w3.org/2000/svg">
<g clip-path="url(#clip0_8238_19214)">
<path d="M146.83 2.61251C145.205 3.69806 144.02 5.06846 142.951 6.68667C139.014 6.75354 135.309 7.88049 132.513 10.7849C129.847 13.5529 128.938 16.9126 129.063 20.6753L129.074 20.9599C129.57 24.337 130.932 27.1038 133.685 29.1872C134.336 29.6802 135.786 30.3975 137.262 31.1279C139.165 32.0697 141.113 33.0333 141.45 33.5659C142.612 35.2258 145.715 36.1953 147.638 36.5485C150.649 37.1008 153.336 36.8533 156.233 35.9947C160.364 42.3992 162.107 49.1253 163.065 56.6356L162.724 57.2713C161.862 56.5138 161.152 55.3473 160.447 54.1901C159.947 53.3685 159.449 52.5514 158.902 51.8887C153.408 45.2216 145.059 40.5057 136.217 41.0033C134.469 41.1014 130.442 41.5084 129.077 42.6762C128.871 44.2953 130.642 46.8474 131.649 48.1364C137.543 55.6813 147.126 57.5369 156.044 59.2636C156.863 59.4221 157.676 59.5796 158.48 59.7403C158.54 59.7521 158.603 59.764 158.668 59.7765C159.351 59.9063 160.325 60.0914 160.494 60.752L160.402 60.9941C151.297 59.4618 141.79 60.5668 134.115 66.0687C127.555 70.7716 123.789 78.1951 122.517 86.049C121.007 95.3712 122.583 105.804 128.194 113.565C132.731 119.84 139.432 123.821 147.06 125.027C155.491 126.36 164.652 124.793 171.619 119.692C178.231 114.85 181.974 107.45 183.187 99.4642C184.646 89.8528 183.306 79.635 177.421 71.6791C174.879 68.2433 171.88 65.9057 168.227 63.7519C168.147 63.7053 168.067 63.6609 167.988 63.6171C167.54 63.368 167.12 63.1348 166.996 62.572C175.189 59.7687 183.291 56.3927 189.813 50.5249C192.977 47.6785 198.492 41.045 198.718 36.8478C198.347 36.2535 198.232 36.1458 197.548 35.9449C196.133 35.5272 194.35 35.471 192.862 35.4392C184.95 35.2681 178.272 38.8846 173.356 44.9397C173.065 45.2984 172.63 45.9741 172.146 46.7273C171.202 48.1948 170.07 49.9564 169.437 50.2401C169.38 50.2654 169.323 50.2875 169.265 50.3095C169.235 50.3213 169.204 50.3332 169.173 50.3455C169.702 48.1657 170.402 46.0038 171.102 43.8434C171.612 42.2671 172.123 40.6916 172.566 39.1104L172.798 38.9274C178.382 34.4929 182.379 27.8174 183.155 20.6779C183.734 15.3633 182.478 10.7145 179.131 6.53122C178.578 6.81868 178.031 7.11539 177.504 7.4457C172.766 10.4242 170.213 16.1799 169.072 21.4743C167.926 26.7912 167.662 34.4691 170.716 39.1911C168.794 45.2332 166.93 51.2929 165.121 57.3692C164.38 49.5471 162.061 41.6975 157.966 34.9841C158.63 34.3797 159.247 33.7243 159.808 33.024C162.153 30.1353 164.95 24.5885 164.562 20.8079C164.134 20.2587 163.659 17.6926 163.255 15.5082C163.027 14.2762 162.822 13.1656 162.66 12.6069C161.867 9.86056 160.796 7.29256 159.574 4.71298C158.387 2.88984 156.624 1.42852 154.456 0.947403C151.767 0.35078 149.083 1.10779 146.83 2.61251ZM149.656 62.9738C153.454 62.599 156.959 62.9761 160.263 65.0552C165.595 68.4117 168.178 74.6941 169.518 80.5946C171.816 90.7305 171.805 107.201 165.98 116.25C163.609 119.933 160.553 121.728 156.362 122.637C152.453 123.057 148.729 122.668 145.378 120.457C139.874 116.825 137.457 109.923 136.183 103.741C134.05 93.3853 133.759 78.4927 139.897 69.3187C142.353 65.6469 145.411 63.8472 149.656 62.9738Z" fill="#353C3A"/>
<path d="M142.951 6.68667C144.02 5.06847 145.204 3.69807 146.83 2.61251C149.083 1.10779 151.767 0.350786 154.456 0.947408C156.623 1.42853 158.387 2.88983 159.574 4.71299C155.86 5.78812 154.593 7.21556 152.44 10.4097C151.874 11.9654 151.389 13.5931 151.251 15.2516C153.864 17.5544 155.543 20.1458 155.775 23.7126C155.803 24.1387 155.834 24.218 155.602 24.5633L154.652 24.2825C153.806 24.9006 153.594 25.9537 153.436 26.9409C153.155 28.7038 153.114 30.6048 153.148 32.3889C150.968 31.7509 149.049 31.5294 146.78 31.6351C144.913 32.0971 143.151 32.6358 141.45 33.5659C140.851 32.6202 135.176 30.3159 133.685 29.1872C130.931 27.1038 129.57 24.337 129.074 20.9599L129.062 20.6753C128.938 16.9126 129.847 13.5529 132.512 10.7849C135.309 7.8805 139.013 6.75354 142.951 6.68667Z" fill="#EAE9E8"/>
<path d="M142.951 6.68667C144.02 5.06847 145.204 3.69807 146.83 2.61251C149.083 1.10779 151.767 0.350786 154.456 0.947408C156.623 1.42853 158.387 2.88983 159.574 4.71299C155.86 5.78812 154.593 7.21556 152.44 10.4097C151.874 11.9654 151.389 13.5931 151.251 15.2516L148.643 14.1993C147.603 14.2271 145.552 14.0181 144.661 14.4679L143.512 15.0269C143.068 15.4299 142.551 16.0372 142.041 16.3305L141.078 17.9936L140.411 18.0347C137.311 17.9791 134.384 18.3172 131.546 19.656C130.744 20.0347 129.902 20.7086 129.074 20.9599L129.062 20.6753C128.938 16.9126 129.847 13.5529 132.512 10.7849C135.309 7.8805 139.013 6.75354 142.951 6.68667Z" fill="#DB8778"/>
<path d="M148.643 14.1998C149.118 12.9278 149.518 11.3638 150.498 10.3934C151.383 10.0356 151.561 10.1529 152.44 10.4102C151.874 11.9659 151.389 13.5936 151.251 15.2521L148.643 14.1998Z" fill="#353C3A"/>
<path d="M143.511 15.0277C142.574 14.3833 141.496 13.7256 140.738 12.8667C140.246 12.31 139.988 11.7041 140.023 10.9619L140.516 10.7188C142.591 11.1738 143.478 12.8713 144.66 14.4687L143.511 15.0277Z" fill="#353C3A"/>
<path d="M140.41 18.0352C140.02 17.9869 139.58 17.9521 139.201 17.8404C138.568 17.6537 138.466 17.3914 138.225 16.8475C138.495 16.4688 138.56 16.3643 138.988 16.1759C140.025 15.7205 141.025 15.9512 142.04 16.331L141.077 17.9941L140.41 18.0352Z" fill="#353C3A"/>
<path d="M145.582 8.37402C145.932 8.52542 146.276 8.70606 146.497 9.03086C147.385 10.335 147.236 12.9383 147.075 14.4494L145.841 14.0829C145.672 13.8976 145.541 13.7503 145.436 13.519C144.709 11.906 145.009 9.9792 145.582 8.37402Z" fill="#353C3A"/>
<path d="M140.412 18.0352L141.079 17.9941C140.266 21.0687 139.828 24.1783 141.53 27.0671C142.745 29.1291 144.715 30.5171 146.781 31.6357C144.914 32.0977 143.152 32.6364 141.451 33.5665C140.852 32.6208 135.177 30.3165 133.685 29.1878C130.932 27.1044 129.571 24.3376 129.075 20.9605C129.903 20.7092 130.745 20.0353 131.547 19.6566C134.385 18.3178 137.312 17.9797 140.412 18.0352Z" fill="#EBB19F"/>
<path d="M169.174 50.3462C169.261 50.3112 169.351 50.2799 169.437 50.2408C170.396 49.8115 172.497 45.9982 173.357 44.9404C178.272 38.8853 184.951 35.2688 192.862 35.4399C194.35 35.4717 196.133 35.5279 197.549 35.9456C198.232 36.1465 198.348 36.2542 198.718 36.8485C198.493 41.0457 192.978 47.6792 189.814 50.5257C183.292 56.3935 175.189 59.7694 166.997 62.5727C171.252 57.184 176.232 51.8961 181.558 47.564C183.411 46.0569 191.235 41.268 191.803 40.2829C191.551 40.1188 191.516 40.0143 191.204 40.0597C184.129 41.0888 170.5 55.624 166.268 61.1195C166.803 57.3777 167.724 53.844 169.174 50.3462Z" fill="#97A898"/>
<path d="M160.402 60.9945L160.494 60.7525C160.309 60.0285 159.157 59.8757 158.48 59.7408C148.917 57.8302 138.084 56.3747 131.648 48.1369C130.641 46.8478 128.87 44.2957 129.076 42.6767C130.441 41.5089 134.469 41.1019 136.216 41.0038C145.058 40.5061 153.408 45.2221 158.902 51.8891C160.219 53.4853 161.25 55.9763 162.723 57.2718L163.065 56.6361C163.215 57.5303 163.276 58.234 163.146 59.1421C162.083 58.8017 160.404 56.6201 159.406 55.8296C153.77 51.362 143.885 45.2861 136.426 45.5003L136.233 45.7634C138.091 47.2102 141.231 47.7852 143.447 48.5537C150.132 50.8728 157.585 55.27 161.846 61.0533L161.617 61.3103C161.247 61.2261 160.726 61.1778 160.402 60.9945Z" fill="#97A898"/>
<path d="M179.131 6.53174C182.477 10.715 183.734 15.3638 183.155 20.6784C182.379 27.8179 178.381 34.4934 172.797 38.9279L172.566 39.1109C173.857 32.7406 174.815 26.0254 176.708 19.8216C177.122 18.472 178.042 16.0351 177.359 14.7504L176.882 14.9415C173.967 19.5552 172.49 33.1426 170.716 39.1917C167.662 34.4696 167.925 26.7917 169.071 21.4748C170.212 16.1805 172.765 10.4247 177.504 7.44621C178.031 7.11591 178.578 6.81919 179.131 6.53174Z" fill="#97A898"/>
<path d="M152.44 10.4101C154.593 7.21595 155.86 5.78851 159.573 4.71338C160.795 7.29295 161.866 9.86095 162.659 12.6073C163.108 14.1566 163.892 19.9494 164.561 20.8083C162.187 21.288 160.54 22.5649 159.22 24.5744C158.485 25.6939 157.91 26.9696 157.379 28.1982C156.791 27.1103 155.839 25.7683 155.601 24.5637C155.834 24.2184 155.802 24.1391 155.775 23.7129C155.543 20.1462 153.864 17.5548 151.251 15.252C151.388 13.5935 151.873 11.9658 152.44 10.4101Z" fill="#EBB19F"/>
<path d="M265.684 60.4912C263.417 60.4237 261.159 60.5485 258.901 60.7369C253.416 61.8433 246.827 63.7137 243.544 68.6485C241.906 71.1114 241.176 74.1533 241.758 77.0762C242.187 79.2233 243.336 81.1859 245.194 82.3922C246.914 83.5076 249.383 84.0171 251.395 83.5661C253.065 83.1918 254.487 82.1082 255.387 80.6649C256.409 79.0261 256.707 76.947 256.267 75.0738C255.995 73.918 255.205 73.0082 254.437 72.124C253.162 70.6552 251.948 69.257 253.271 66.9188C254.348 65.0178 256.901 63.8851 258.927 63.4172C262.06 62.6941 265.802 62.9153 268.57 64.6713C271.277 66.3894 272.788 69.2118 273.456 72.2832C274.282 76.0931 274.476 81.6509 272.255 84.9776C270.241 87.9964 265.116 89.1818 259.36 90.5135C251.109 92.4221 241.559 94.6313 238.004 102.969C236.636 106.173 237.045 109.463 237.354 111.94C237.525 113.316 237.665 114.442 237.451 115.161C237.488 115.211 237.526 115.26 237.564 115.309C238.009 115.909 238.369 116.556 238.729 117.203C238.992 117.676 239.256 118.148 239.552 118.603C242.024 122.404 245.359 124.056 249.768 124.735C256.42 125.76 263.796 124.299 269.253 120.257C270.556 119.292 272.964 117.123 273.222 115.449C273.244 115.478 273.266 115.507 273.287 115.537L273.315 115.576C274.112 116.771 274.397 117.967 274.664 119.092C275.227 121.458 275.714 123.508 280.743 124.578C284.515 125.38 290.356 124.973 293.703 122.748C294.389 122.294 295.095 121.585 295.228 120.744C295.246 120.633 295.25 120.551 295.25 120.463C295.25 120.393 295.247 120.32 295.246 120.226C295.189 120.173 295.141 120.126 295.1 120.085C294.851 119.841 294.804 119.796 294.351 119.807C293.688 119.824 293.008 119.946 292.328 120.067C290.601 120.376 288.877 120.684 287.433 119.274C285.291 117.182 285.332 112.34 285.358 109.234C285.36 108.994 285.362 108.765 285.363 108.547C285.415 101.831 285.429 95.1147 285.409 88.3981C285.383 73.2136 284.897 61.0623 265.684 60.4912ZM272.553 88.5266L273.381 88.5012L273.63 88.848C273.868 90.7795 273.8 92.7219 273.732 94.6638C273.701 95.553 273.669 96.4421 273.668 97.3301C273.665 98.5015 273.705 99.6941 273.745 100.894C273.84 103.765 273.938 106.681 273.462 109.45C273.196 111.015 272.623 112.513 271.78 113.858C269.928 116.811 266.868 118.648 263.501 119.366C259.515 120.217 256.386 119.336 253.033 117.187C252.83 116.824 252.633 116.478 252.443 116.146C250.482 112.707 249.312 110.653 249.707 106.063C250.453 97.393 259.069 94.1717 266.141 91.5275L266.685 91.324L267.065 91.1815C267.33 91.0815 267.624 90.9765 267.935 90.8654L267.939 90.8638C269.424 90.3334 271.294 89.6653 272.31 88.7544C272.344 88.7248 272.377 88.6945 272.409 88.6639C272.457 88.6183 272.505 88.572 272.553 88.5266Z" fill="#353C3A"/>
<path d="M266.791 91.2837C266.704 91.3163 266.616 91.349 266.529 91.3818L266.684 91.3239L266.791 91.2837Z" fill="#EAE9E8"/>
<path d="M67.5242 26.2549C68.927 26.1011 70.45 26.153 71.8569 26.2916C77.2789 26.7823 82.2788 29.4229 85.7413 33.6239C88.0531 36.4782 89.3994 39.939 88.978 43.6394C88.7313 45.805 87.9222 47.8983 86.1651 49.2776C84.2872 50.752 81.5968 51.4829 79.2297 51.1908C77.2363 50.9448 75.4965 49.8905 74.281 48.2986C73.1989 46.8816 72.7276 44.7719 72.9922 43.0164C73.5732 39.1611 77.6112 38.8065 80.1742 36.8641C80.8629 36.3424 81.1518 35.8133 81.276 34.9677C81.1194 33.98 80.717 33.3356 80.0527 32.6197C77.5869 29.9631 73.8331 28.7377 70.2789 28.6489C67.2173 28.5719 64.1864 29.3882 61.9641 31.5842C56.657 36.827 58.1128 53.3729 58.1285 60.5506C61.6816 60.5839 82.0246 59.9555 83.8579 61.305C84.038 61.9025 83.9592 62.2487 83.8055 62.8459C82.4131 63.798 61.6706 63.2938 58.1082 63.3453L58.1374 83.8748C59.9681 83.8785 61.8072 83.902 63.6361 83.8256C76.5152 83.2874 72.6593 73.9907 75.7547 70.9118C76.0789 70.5893 76.2477 70.6776 76.6953 70.6776C77.5915 71.8665 77.1871 94.0932 77.1865 97.4292C77.1964 98.2122 77.1402 98.9785 77.0759 99.7578L76.5227 100.209C75.8063 100.218 75.6302 100.329 75.0701 99.8504C74.6324 96.2443 73.5987 91.6699 70.9071 89.0834C67.5699 85.8763 62.3928 86.5487 58.1371 86.6031C58.1125 92.7294 56.758 115.052 60.6843 119.308C62.8328 121.637 66.7706 121.33 68.2841 123.226L68.2169 123.64C67.3757 124.106 66.3425 124.132 65.4 124.172C62.6936 124.284 38.3817 124.224 37.0461 123.818C36.7786 123.737 36.8817 123.722 36.6049 123.757C36.5525 123.764 36.5018 123.78 36.4506 123.791L36.3151 123.472C36.681 122.101 42.2472 121.018 43.8391 119.356C47.3282 115.714 46.0649 92.9295 46.0301 86.6492C43.5788 86.6101 38.6741 87.4664 36.8333 85.9547C36.4911 85.2863 36.3962 85.1621 36.4735 84.4268C37.8335 83.2107 44.0715 83.792 46.0064 83.7859C46.0377 76.9397 46.033 70.0931 45.9925 63.2466C43.0146 63.3022 39.0229 63.8267 36.3215 62.4013L36.25 61.5482C38.107 59.998 43.5947 60.5677 46.0105 60.5868C45.9025 51.6954 46.031 41.1067 51.9283 33.8242C55.8317 29.0038 61.5449 26.8787 67.5242 26.2549Z" fill="#353C3A"/>
<path d="M110.639 21.75L110.973 21.8157C111.428 22.3478 111.428 22.6332 111.464 23.3112C111.844 30.6782 111.435 38.2829 111.432 45.6765L111.419 92.451C111.419 98.0661 110.613 113.171 112.398 117.578C114.379 122.471 119.009 120.926 120.501 123.225L120.268 123.837C118.916 124.363 95.6853 124.079 91.9374 124.194C91.6407 124.194 91.6991 124.226 91.478 124.139C90.9094 123.913 90.9245 123.688 90.6865 123.164C91.2487 121.234 95.3784 122.013 97.0627 120.139C98.5225 118.515 99.0913 116.356 99.3582 114.244C99.9117 109.866 99.7421 105.368 99.7404 100.963L99.7236 82.4124L99.7105 55.8495C99.7175 49.9525 99.8663 44.0201 99.5826 38.1298C99.2708 31.6514 99.4908 30.4431 93.0869 28.4614C92.4399 28.261 91.5205 28.0451 91.0408 27.5393C90.7389 27.2209 90.8289 27.1127 90.8217 26.7019L91.0909 26.736C91.5975 26.1481 93.9229 26.0216 94.7358 25.9183C100.298 25.2102 105.599 24.3134 110.639 21.75Z" fill="#353C3A"/>
<path d="M205.09 60.1392L205.961 60.2489C206.031 60.3574 206.143 60.5146 206.193 60.6434C206.841 62.3346 206.485 73.66 205.831 75.2012C206.766 74.388 207.168 73.2397 207.724 72.1596C209.69 68.3413 212.118 64.9912 216.041 62.9871C220.117 60.9043 225.406 59.8193 229.826 61.3069C232.281 62.1328 234.264 63.8272 235.39 66.1679C236.562 68.6097 236.794 71.484 235.85 74.041C235.08 76.1215 233.534 77.9773 231.496 78.9077C229.565 79.7892 227.423 79.7133 225.469 78.9332C223.495 78.1441 221.822 76.734 221.017 74.7328C219.465 70.8841 221.553 69.4923 222.754 66.328C222.988 65.7157 222.945 65.5267 222.676 64.9527C221.851 64.5552 220.985 64.7251 220.131 64.9301C209.258 67.5374 206.708 80.3875 206.488 89.9769C206.433 92.3391 206.52 100.619 206.52 100.619C206.52 100.619 206.43 108.577 206.52 110.863C206.737 116.418 207.119 120.184 213.059 121.966C213.928 122.227 215.034 122.389 215.696 123.04C215.873 123.213 215.786 123.527 215.783 123.764C215.717 123.814 215.65 123.868 215.584 123.916C215.216 124.169 187.55 124.265 186.016 123.881L185.831 123.243C186.47 120.829 191.119 122.038 192.911 119.757C193.803 118.621 194.147 117.142 194.35 115.742C195.441 108.232 194.914 100.117 194.897 92.5142C194.883 86.2157 195.285 79.5064 194.428 73.2834C193.238 64.6241 190.086 68.6896 186.505 65.9621C186.192 65.2786 186.242 65.2057 186.412 64.4626C192.512 63.3078 199.283 63.256 204.89 60.2483L205.09 60.1392Z" fill="#353C3A"/>
</g>
<defs>
<clipPath id="clip0_8238_19214">
<rect width="259" height="124.736" fill="white" transform="translate(36.25 0.743164)"/>
</clipPath>
</defs>
</svg>
