<svg width="74" height="36" viewBox="0 0 74 36" fill="none" xmlns="http://www.w3.org/2000/svg">
<g clip-path="url(#clip0_8652_138)">
<path d="M31.5942 0.5341C31.13 0.844257 30.7914 1.2358 30.486 1.69814C29.361 1.71725 28.3027 2.03924 27.5036 2.86906C26.7421 3.65992 26.4824 4.61984 26.5179 5.6949L26.5213 5.7762C26.6629 6.74109 27.0519 7.53162 27.8385 8.12688C28.0247 8.26774 28.4388 8.47268 28.8606 8.68136C29.4044 8.95044 29.9608 9.22575 30.0572 9.37794C30.3891 9.85219 31.2757 10.1292 31.8252 10.2301C32.6853 10.3879 33.4531 10.3172 34.2809 10.0719C35.4612 11.9017 35.9592 13.8235 36.2329 15.9693L36.1353 16.1509C35.8891 15.9345 35.6862 15.6012 35.4849 15.2706C35.3419 15.0358 35.1998 14.8024 35.0435 14.613C33.4737 12.7081 31.0882 11.3607 28.5619 11.5029C28.0626 11.5309 26.9119 11.6472 26.5219 11.9809C26.463 12.4435 26.9691 13.1726 27.2568 13.5409C28.9408 15.6966 31.679 16.2268 34.2268 16.7201C34.4608 16.7654 34.6932 16.8104 34.923 16.8563C34.9399 16.8597 34.9579 16.8631 34.9766 16.8667C35.1718 16.9037 35.4501 16.9566 35.4984 17.1454L35.472 17.2145C32.8706 16.7768 30.1544 17.0925 27.9615 18.6644C26.0871 20.0081 25.011 22.1291 24.6477 24.3731C24.2164 27.0366 24.6665 30.0173 26.2698 32.2348C27.5661 34.0277 29.4806 35.1652 31.6601 35.5098C34.0688 35.8905 36.6862 35.4429 38.6769 33.9853C40.566 32.6021 41.6355 30.4877 41.982 28.206C42.3989 25.4599 42.0159 22.5405 40.3345 20.2674C39.6083 19.2857 38.7514 18.6179 37.7076 18.0025C37.685 17.9892 37.6621 17.9765 37.6396 17.964C37.5113 17.8928 37.3913 17.8262 37.3561 17.6654C39.6967 16.8644 42.0118 15.8999 43.8753 14.2234C44.7792 13.4101 46.3548 11.5148 46.4194 10.3156C46.3135 10.1458 46.2804 10.115 46.0852 10.0576C45.6808 9.93829 45.1713 9.92224 44.7462 9.91314C42.4858 9.86427 40.5776 10.8975 39.1732 12.6276C39.0899 12.7301 38.9658 12.9231 38.8274 13.1383C38.5579 13.5576 38.2342 14.0609 38.0533 14.142C38.0372 14.1492 38.0208 14.1555 38.0044 14.1618C37.9956 14.1652 37.9868 14.1686 37.9781 14.1721C38.1291 13.5493 38.3292 12.9316 38.5291 12.3144C38.6749 11.864 38.8208 11.4138 38.9474 10.9621L39.0136 10.9098C40.609 9.64277 41.7513 7.7355 41.9729 5.69564C42.1384 4.17719 41.7794 2.84896 40.8233 1.65373C40.6653 1.73586 40.509 1.82064 40.3584 1.91501C39.0045 2.766 38.275 4.41051 37.9491 5.92318C37.6216 7.44229 37.5463 9.63599 38.4189 10.9851C37.8698 12.7114 37.3371 14.4428 36.8201 16.1789C36.6084 13.944 35.9459 11.7012 34.7759 9.78313C34.9658 9.61043 35.142 9.42318 35.3024 9.2231C35.9724 8.39775 36.7713 6.81296 36.6605 5.73278C36.5384 5.57588 36.4027 4.84269 36.2872 4.21858C36.2221 3.86657 36.1634 3.54926 36.1171 3.38963C35.8905 2.60497 35.5845 1.87126 35.2355 1.13423C34.8963 0.613335 34.3925 0.195817 33.7731 0.0583541C33.0049 -0.11211 32.238 0.104178 31.5942 0.5341ZM32.4017 17.7802C33.4868 17.6731 34.4883 17.7808 35.4323 18.3749C36.9558 19.3339 37.6936 21.1288 38.0765 22.8147C38.7332 25.7107 38.7299 30.4167 37.0658 33.002C36.3884 34.0544 35.515 34.567 34.3178 34.8267C33.201 34.9468 32.1369 34.8358 31.1796 34.2041C29.6069 33.1662 28.9163 31.1943 28.5524 29.4279C27.9429 26.4692 27.8597 22.2141 29.6134 19.593C30.3153 18.5439 31.1888 18.0297 32.4017 17.7802Z" fill="#353C3A"/>
<path d="M30.486 1.69815C30.7913 1.2358 31.1298 0.844258 31.5942 0.534099C32.2379 0.104177 33.0049 -0.112108 33.7731 0.0583554C34.3924 0.195818 34.8962 0.613333 35.2354 1.13423C34.1743 1.44142 33.8124 1.84926 33.1972 2.76187C33.0354 3.20635 32.8968 3.67142 32.8576 4.14526C33.6041 4.80321 34.0838 5.54362 34.15 6.56268C34.158 6.68443 34.167 6.70709 34.1005 6.80576L33.8292 6.72553C33.5875 6.90212 33.5269 7.20302 33.4818 7.48505C33.4014 7.98875 33.3896 8.5319 33.3995 9.04164C32.7767 8.85935 32.2283 8.79608 31.58 8.82626C31.0466 8.95827 30.5432 9.11219 30.0571 9.37793C29.886 9.10772 28.2646 8.44936 27.8384 8.12688C27.0518 7.53162 26.6628 6.74109 26.5212 5.7762L26.5178 5.6949C26.4823 4.61984 26.742 3.65992 27.5035 2.86906C28.3026 2.03924 29.3609 1.71725 30.486 1.69815Z" fill="#EAE9E8"/>
<path d="M30.486 1.69815C30.7913 1.2358 31.1298 0.844258 31.5942 0.534099C32.2379 0.104177 33.0049 -0.112108 33.7731 0.0583554C34.3924 0.195818 34.8962 0.613333 35.2354 1.13423C34.1743 1.44142 33.8124 1.84926 33.1972 2.76187C33.0354 3.20635 32.8968 3.67142 32.8576 4.14526L32.1123 3.84461C31.815 3.85255 31.2293 3.79284 30.9746 3.92137L30.6462 4.08108C30.5195 4.19621 30.3716 4.36973 30.2261 4.45352L29.9509 4.92868L29.7603 4.94043C28.8745 4.92455 28.0382 5.02115 27.2275 5.40368C26.9983 5.51186 26.7578 5.70441 26.5212 5.7762L26.5178 5.6949C26.4823 4.61984 26.742 3.65992 27.5035 2.86906C28.3026 2.03924 29.3609 1.71725 30.486 1.69815Z" fill="#DB8778"/>
<path d="M32.1125 3.8446C32.2482 3.48117 32.3625 3.0343 32.6426 2.75706C32.8955 2.65483 32.9463 2.68833 33.1974 2.76185C33.0356 3.20633 32.897 3.67141 32.8578 4.14525L32.1125 3.8446Z" fill="#353C3A"/>
<path d="M30.6462 4.08107C30.3785 3.89696 30.0705 3.70904 29.8538 3.46365C29.7133 3.3046 29.6397 3.13149 29.6496 2.91942L29.7904 2.84995C30.3834 2.97996 30.6369 3.46497 30.9746 3.92136L30.6462 4.08107Z" fill="#353C3A"/>
<path d="M29.76 4.94043C29.6485 4.92662 29.5227 4.91669 29.4145 4.88477C29.2336 4.83142 29.2045 4.75648 29.1357 4.60107C29.2129 4.49289 29.2314 4.46303 29.3538 4.40919C29.6499 4.27909 29.9357 4.345 30.2258 4.45352L29.9506 4.92868L29.76 4.94043Z" fill="#353C3A"/>
<path d="M31.2377 2.18024C31.3378 2.22349 31.436 2.27511 31.4992 2.3679C31.753 2.74051 31.7105 3.48431 31.6644 3.91605L31.3117 3.81134C31.2634 3.75841 31.226 3.71631 31.1962 3.65023C30.9884 3.18937 31.0742 2.63886 31.2377 2.18024Z" fill="#353C3A"/>
<path d="M29.7606 4.94042L29.9512 4.92868C29.7189 5.80713 29.5937 6.69559 30.08 7.52095C30.427 8.11008 30.99 8.50668 31.5803 8.82626C31.0468 8.95827 30.5435 9.11219 30.0574 9.37793C29.8863 9.10772 28.2649 8.44936 27.8387 8.12688C27.0521 7.53162 26.6631 6.74108 26.5215 5.7762C26.758 5.70441 26.9986 5.51186 27.2277 5.40368C28.0385 5.02115 28.8748 4.92454 29.7606 4.94042Z" fill="#EBB19F"/>
<path d="M37.9781 14.1721C38.0029 14.1621 38.0286 14.1531 38.0534 14.142C38.3271 14.0193 38.9276 12.9298 39.1732 12.6276C40.5777 10.8975 42.4857 9.86425 44.7462 9.91313C45.1713 9.92223 45.6808 9.93827 46.0852 10.0576C46.2804 10.115 46.3135 10.1458 46.4194 10.3156C46.3549 11.5148 44.7793 13.4101 43.8753 14.2233C42.0118 15.8999 39.6968 16.8644 37.3561 17.6654C38.5719 16.1257 39.9945 14.6149 41.5164 13.3772C42.0457 12.9466 44.2814 11.5783 44.4435 11.2969C44.3715 11.25 44.3616 11.2201 44.2723 11.2331C42.2508 11.5271 38.3569 15.68 37.1477 17.2502C37.3007 16.1811 37.5637 15.1714 37.9781 14.1721Z" fill="#97A898"/>
<path d="M35.4722 17.2145L35.4986 17.1454C35.4457 16.9385 35.1165 16.8949 34.9231 16.8563C32.1909 16.3104 29.0956 15.8946 27.257 13.5409C26.9693 13.1726 26.4632 12.4435 26.5221 11.9809C26.9121 11.6472 28.0628 11.5309 28.5621 11.5029C31.0884 11.3607 33.4739 12.7081 35.0437 14.613C35.4201 15.0691 35.7145 15.7808 36.1355 16.1509L36.2331 15.9693C36.2761 16.2248 36.2935 16.4258 36.2563 16.6853C35.9527 16.588 35.473 15.9647 35.1877 15.7388C33.5775 14.4624 30.7531 12.7264 28.622 12.7876L28.567 12.8628C29.0978 13.2762 29.9948 13.4404 30.6279 13.66C32.5379 14.3226 34.6676 15.579 35.8849 17.2313L35.8196 17.3048C35.7137 17.2807 35.5648 17.2669 35.4722 17.2145Z" fill="#97A898"/>
<path d="M40.8228 1.65372C41.7789 2.84895 42.1379 4.17717 41.9725 5.69563C41.7508 7.73548 40.6086 9.64276 39.0131 10.9098L38.947 10.962C39.3159 9.14195 39.5896 7.22335 40.1305 5.45081C40.2488 5.06522 40.5118 4.36897 40.3166 4.00191L40.1802 4.0565C39.3473 5.37472 38.9255 9.25683 38.4185 10.9851C37.5459 9.63597 37.6211 7.44228 37.9487 5.92316C38.2745 4.41049 39.004 2.76599 40.358 1.91499C40.5085 1.82062 40.6648 1.73585 40.8228 1.65372Z" fill="#97A898"/>
<path d="M33.197 2.76188C33.8123 1.84927 34.1741 1.44143 35.2352 1.13425C35.5843 1.87127 35.8903 2.60498 36.1169 3.38964C36.2451 3.8323 36.4692 5.48739 36.6603 5.73279C35.9821 5.86984 35.5115 6.23467 35.1343 6.80884C34.9244 7.12867 34.7601 7.49317 34.6082 7.84419C34.4402 7.53337 34.1684 7.14993 34.1004 6.80577C34.1669 6.7071 34.1579 6.68444 34.1499 6.56269C34.0837 5.54363 33.604 4.80322 32.8574 4.14527C32.8966 3.67143 33.0352 3.20636 33.197 2.76188Z" fill="#EBB19F"/>
<path d="M65.5523 17.0709C64.9048 17.0516 64.2596 17.0872 63.6145 17.1411C62.0472 17.4572 60.1647 17.9916 59.2267 19.4015C58.7586 20.1052 58.5502 20.9743 58.7164 21.8094C58.8389 22.4229 59.1672 22.9837 59.6982 23.3283C60.1895 23.647 60.895 23.7926 61.4698 23.6637C61.947 23.5568 62.3532 23.2472 62.6104 22.8348C62.9024 22.3666 62.9876 21.7726 62.8619 21.2373C62.7841 20.9071 62.5584 20.6472 62.3391 20.3945C61.9747 19.9749 61.6279 19.5754 62.0058 18.9073C62.3135 18.3642 63.043 18.0406 63.622 17.9069C64.5168 17.7003 65.5862 17.7635 66.377 18.2652C67.1503 18.7561 67.582 19.5625 67.7731 20.44C68.0088 21.5286 68.0643 23.1165 67.4299 24.067C66.8544 24.9295 65.3902 25.2682 63.7454 25.6487C61.3881 26.194 58.6594 26.8252 57.6437 29.2074C57.253 30.1229 57.3699 31.0629 57.458 31.7704C57.5069 32.1638 57.5469 32.4853 57.4858 32.6909C57.4965 32.705 57.5073 32.719 57.518 32.7332C57.6452 32.9045 57.7481 33.0893 57.8511 33.2743C57.9262 33.4093 58.0014 33.5443 58.0862 33.6744C58.7925 34.7602 59.7454 35.2321 61.005 35.4262C62.9057 35.719 65.0131 35.3018 66.5722 34.1468C66.9443 33.8711 67.6325 33.2513 67.7061 32.773C67.7125 32.7814 67.7188 32.7897 67.7248 32.7981L67.7326 32.8093C67.9605 33.1508 68.0417 33.4926 68.1182 33.814C68.2789 34.4898 68.4182 35.0758 69.8549 35.3813C70.9326 35.6105 72.6016 35.4943 73.5578 34.8586C73.7538 34.7287 73.9556 34.5264 73.9937 34.2859C73.9987 34.2543 74 34.2308 73.9999 34.2057C73.9998 34.1858 73.999 34.1649 73.9986 34.138C73.9825 34.1228 73.9688 34.1094 73.9568 34.0976C73.8858 34.028 73.8725 34.015 73.743 34.0183C73.5535 34.0232 73.3592 34.0579 73.1651 34.0926C72.6715 34.1808 72.1788 34.2688 71.7663 33.866C71.1544 33.2683 71.1661 31.8849 71.1736 30.9975C71.1741 30.9289 71.1747 30.8633 71.1749 30.8012C71.1898 28.8823 71.1939 26.9633 71.1882 25.0443C71.1807 20.7059 71.0418 17.2341 65.5523 17.0709ZM67.515 25.081L67.7515 25.0737L67.8227 25.1728C67.8908 25.7247 67.8713 26.2796 67.8518 26.8345C67.8429 27.0885 67.8339 27.3426 67.8334 27.5963C67.8327 27.931 67.844 28.2717 67.8554 28.6147C67.8828 29.4348 67.9105 30.268 67.7747 31.0592C67.6986 31.5063 67.5348 31.9341 67.2942 32.3186C66.7649 33.1623 65.8906 33.687 64.9287 33.8923C63.7898 34.1354 62.8957 33.8837 61.938 33.2695C61.8797 33.166 61.8234 33.0672 61.7692 32.9721C61.209 31.9895 60.8745 31.4029 60.9877 30.0913C61.2007 27.6143 63.6623 26.6939 65.683 25.9384L65.8385 25.8802L65.9469 25.8395C66.0227 25.811 66.1068 25.781 66.1955 25.7492L66.1968 25.7488C66.6209 25.5972 67.1552 25.4063 67.4456 25.1461C67.4552 25.1376 67.4646 25.129 67.4738 25.1202C67.4876 25.1072 67.5011 25.094 67.515 25.081Z" fill="#353C3A"/>
<path d="M65.869 25.8687C65.8442 25.8781 65.8192 25.8874 65.7942 25.8968L65.8384 25.8802L65.869 25.8687Z" fill="#EAE9E8"/>
<path d="M8.93548 7.28877C9.33628 7.24485 9.77142 7.25966 10.1734 7.29928C11.7225 7.43947 13.1511 8.19394 14.1404 9.39422C14.8009 10.2097 15.1856 11.1985 15.0651 12.2558C14.9947 12.8745 14.7635 13.4726 14.2614 13.8667C13.7249 14.2879 12.9562 14.4968 12.2799 14.4133C11.7104 14.343 11.2133 14.0418 10.866 13.587C10.5568 13.1821 10.4222 12.5793 10.4978 12.0778C10.6638 10.9763 11.8175 10.875 12.5498 10.32C12.7465 10.1709 12.8291 10.0197 12.8646 9.77815C12.8198 9.49595 12.7049 9.31184 12.515 9.1073C11.8105 8.34828 10.738 7.99817 9.72254 7.97278C8.84781 7.95078 7.98184 8.18401 7.34688 8.81145C5.83058 10.3094 6.24652 15.0368 6.25099 17.0876C7.26616 17.0971 13.0785 16.9175 13.6023 17.3031C13.6537 17.4738 13.6312 17.5727 13.5873 17.7434C13.1895 18.0154 7.26302 17.8713 6.2452 17.886L6.25355 23.7516C6.77661 23.7527 7.30206 23.7594 7.82461 23.7375C11.5043 23.5838 10.4027 20.9276 11.2871 20.0479C11.3797 19.9558 11.4279 19.981 11.5558 19.981C11.8119 20.3207 11.6963 26.6712 11.6961 27.6243C11.699 27.848 11.6829 28.067 11.6645 28.2896L11.5065 28.4186C11.3018 28.421 11.2515 28.4528 11.0915 28.3161C10.9664 27.2858 10.671 25.9788 9.90202 25.2398C8.94855 24.3235 7.46937 24.5156 6.25347 24.5311C6.24644 26.2815 5.85944 32.6593 6.98123 33.8754C7.59509 34.5409 8.72018 34.453 9.15259 34.9947L9.1334 35.1132C8.89305 35.2464 8.59786 35.2538 8.32856 35.265C7.55531 35.297 0.60907 35.28 0.22745 35.1641C0.151027 35.1409 0.180472 35.1365 0.101402 35.1466C0.0864321 35.1485 0.0719564 35.1531 0.0573168 35.1563L0.0186075 35.065C0.123152 34.6734 1.71348 34.3638 2.1683 33.8891C3.16519 32.8484 2.80425 26.3387 2.79432 24.5443C2.09394 24.5331 0.692607 24.7778 0.16666 24.3459C0.0688979 24.1549 0.0417658 24.1194 0.0638492 23.9093C0.452417 23.5619 2.23472 23.7279 2.78755 23.7262C2.79648 21.7701 2.79515 19.814 2.78357 17.8578C1.93274 17.8737 0.792271 18.0236 0.0204299 17.6163L0 17.3726C0.530579 16.9297 2.09849 17.0924 2.7887 17.0979C2.75785 14.5575 2.79457 11.5322 4.47952 9.45145C5.59477 8.07418 7.22712 7.46701 8.93548 7.28877Z" fill="#353C3A"/>
<path d="M21.2537 6.00189L21.3491 6.02067C21.479 6.17269 21.4793 6.25424 21.4893 6.44794C21.5979 8.55281 21.4811 10.7256 21.4802 12.838L21.4767 26.2022C21.4764 27.8065 21.2462 32.1222 21.7562 33.3814C22.3224 34.7793 23.645 34.3379 24.0714 34.9947L24.0047 35.1696C23.6185 35.3199 16.9812 35.2388 15.9104 35.2717C15.8256 35.2716 15.8423 35.2808 15.7791 35.2558C15.6167 35.1913 15.621 35.1272 15.553 34.9773C15.7136 34.4259 16.8935 34.6484 17.3747 34.113C17.7918 33.649 17.9544 33.0321 18.0306 32.4286C18.1888 31.1779 18.1403 29.8927 18.1398 28.6341L18.135 23.334L18.1313 15.7446C18.1333 14.0597 18.1758 12.3648 18.0947 10.6818C18.0056 8.83087 18.0685 8.48565 16.2388 7.91942C16.0539 7.86219 15.7913 7.80048 15.6542 7.65599C15.5679 7.56501 15.5937 7.53408 15.5916 7.41672L15.6685 7.42647C15.8133 7.25849 16.4777 7.22235 16.7099 7.19282C18.2991 6.99052 19.8138 6.73428 21.2537 6.00189Z" fill="#353C3A"/>
<path d="M48.2397 16.97L48.4887 17.0014C48.5085 17.0324 48.5408 17.0773 48.5548 17.1141C48.7401 17.5973 48.6384 20.8331 48.4514 21.2735C48.7186 21.0411 48.8335 20.713 48.9924 20.4044C49.5539 19.3135 50.2479 18.3563 51.3686 17.7837C52.5331 17.1886 54.0442 16.8786 55.3072 17.3037C56.0086 17.5396 56.5751 18.0237 56.8969 18.6925C57.2318 19.3902 57.298 20.2114 57.0284 20.942C56.8084 21.5364 56.3667 22.0666 55.7844 22.3325C55.2328 22.5843 54.6207 22.5627 54.0624 22.3398C53.4983 22.1143 53.0203 21.7114 52.7904 21.1396C52.347 20.04 52.9434 19.6424 53.2866 18.7383C53.3536 18.5633 53.3412 18.5093 53.2643 18.3453C53.0286 18.2318 52.7813 18.2803 52.5373 18.3389C49.4307 19.0838 48.702 22.7553 48.6392 25.4951C48.6235 26.17 48.6483 28.5356 48.6483 28.5356C48.6483 28.5356 48.6226 30.8094 48.6483 31.4626C48.7103 33.0496 48.8195 34.1257 50.5167 34.6349C50.7648 34.7093 51.0808 34.7556 51.2702 34.9418C51.3206 34.9911 51.2958 35.0809 51.295 35.1485C51.2759 35.163 51.2569 35.1784 51.2379 35.192C51.1329 35.2643 43.2284 35.2917 42.79 35.1819L42.7371 34.9998C42.9198 34.3099 44.2482 34.6553 44.7601 34.0036C45.0149 33.6793 45.1133 33.2564 45.1712 32.8566C45.483 30.7109 45.3325 28.3923 45.3275 26.2201C45.3234 24.4205 45.4383 22.5035 45.1935 20.7255C44.8536 18.2514 43.9529 19.413 42.9298 18.6337C42.8404 18.4384 42.8545 18.4176 42.9033 18.2053C44.646 17.8754 46.5805 17.8606 48.1826 17.0012L48.2397 16.97Z" fill="#353C3A"/>
</g>
<defs>
<clipPath id="clip0_8652_138">
<rect width="74" height="35.6389" fill="white"/>
</clipPath>
</defs>
</svg>
